<?xml version="1.0" standalone="no"?>
<!DOCTYPE svg PUBLIC "-//W3C//DTD SVG 20010904//EN"
 "http://www.w3.org/TR/2001/REC-SVG-20010904/DTD/svg10.dtd">
<svg version="1.0" xmlns="http://www.w3.org/2000/svg"
 width="16.000000pt" height="16.000000pt" viewBox="0 0 16.000000 16.000000"
 preserveAspectRatio="xMidYMid meet">
<metadata>
Created by potrace 1.11, written by Peter Selinger 2001-2013
</metadata>
<g transform="translate(0.000000,16.000000) scale(0.002286,-0.002286)"
fill="#000000" stroke="none">
<path d="M3857 5422 c-158 -43 -240 -159 -171 -242 33 -39 93 -69 211 -108
l92 -30 88 27 c157 50 223 93 239 157 16 64 -51 146 -151 184 -83 31 -217 36
-308 12z"/>
<path d="M3440 5220 c-261 -78 -640 -221 -945 -355 -386 -170 -1133 -560
-1399 -732 -92 -59 -258 -226 -326 -327 -102 -153 -187 -371 -197 -508 -5 -70
-3 -82 21 -132 44 -89 150 -155 356 -220 113 -36 611 -158 617 -152 2 2 14 43
28 92 112 419 389 838 872 1319 283 282 607 549 1000 823 l131 92 -24 62 c-13
34 -24 63 -24 65 0 5 -11 2 -110 -27z"/>
<path d="M4410 5187 c-11 -34 -20 -66 -20 -73 0 -7 30 -22 68 -34 102 -34 295
-130 412 -208 257 -169 572 -433 860 -722 219 -218 295 -307 396 -460 131
-199 166 -299 167 -470 0 -205 -59 -383 -221 -659 -34 -58 -60 -106 -58 -108
5 -5 80 24 147 57 232 115 404 336 481 618 17 63 21 106 21 232 0 140 -2 164
-27 245 -60 198 -173 364 -410 600 -211 211 -403 365 -651 522 -358 228 -740
406 -1062 497 l-82 23 -21 -60z"/>
<path d="M3501 4914 c-816 -574 -1450 -1234 -1691 -1760 -71 -153 -152 -427
-132 -446 8 -7 173 -56 300 -88 120 -30 2007 -400 2042 -400 38 0 43 9 101
212 107 374 143 586 143 843 0 188 -1 195 -82 720 -72 458 -142 872 -158 926
-3 12 -52 28 -171 59 -92 23 -172 44 -177 46 -6 2 -85 -48 -175 -112z"/>
<path d="M4248 5001 c-58 -12 -118 -42 -118 -60 0 -9 11 -82 25 -161 47 -263
173 -1014 184 -1090 35 -240 42 -528 17 -690 -9 -52 -51 -255 -95 -450 -45
-205 -75 -357 -70 -361 6 -3 47 -11 92 -18 45 -7 159 -30 253 -52 638 -145
767 -159 887 -97 45 23 168 111 245 176 144 122 348 437 455 702 50 125 62
182 62 305 -1 136 -29 236 -106 370 -147 256 -501 621 -964 994 -181 146 -330
245 -490 326 -185 93 -290 123 -377 106z"/>
<path d="M650 2790 c-47 -18 -119 -43 -160 -57 -90 -30 -130 -67 -130 -117 0
-79 105 -143 290 -177 263 -48 718 -190 1465 -459 936 -337 960 -344 1205
-344 303 -1 563 95 867 317 45 33 80 64 78 68 -3 3 -26 10 -52 14 -65 9 -1051
200 -1731 335 -599 119 -680 141 -1014 271 -198 77 -541 168 -663 176 -60 3
-82 -1 -155 -27z"/>
<path d="M5860 2187 c-36 -30 -108 -92 -160 -137 -115 -99 -189 -144 -296
-179 l-82 -26 79 -74 c176 -162 237 -210 290 -226 85 -25 126 -20 164 18 52
52 67 138 73 402 2 121 2 233 0 248 l-3 28 -65 -54z"/>
</g>
</svg>
