<?xml version="1.0" encoding="utf-8"?>
<!-- Generator: Adobe Illustrator 17.0.0, SVG Export Plug-In . SVG Version: 6.00 Build 0)  -->
<!DOCTYPE svg PUBLIC "-//W3C//DTD SVG 1.1//EN" "http://www.w3.org/Graphics/SVG/1.1/DTD/svg11.dtd">
<svg version="1.1" id="Слой_1" xmlns="http://www.w3.org/2000/svg" xmlns:xlink="http://www.w3.org/1999/xlink" x="0px" y="0px"
	 width="50px" height="50px" viewBox="0 0 50 50" style="enable-background:new 0 0 50 50;" xml:space="preserve">
<g>
	<g>
		<path style="fill:#FFFFFF;" d="M0.1,50.1c0-16.7,0-33.3,0-50c16.7,0,33.3,0,50,0c0,16.7,0,33.3,0,50C33.4,50.1,16.8,50.1,0.1,50.1
			z M11.9,30.7c0.9,0.3,1.9,0.6,2.8,0.8c4.6,0.9,9.2,1.8,13.9,2.7c0.3,0.1,0.4-0.1,0.5-0.3c0.3-1,0.6-2,0.8-3
			c0.4-1.9,0.8-3.8,0.5-5.8c-0.4-2.5-0.7-4.9-1.1-7.4c-0.2-1-0.4-2-0.6-2.9c-0.9-0.2-1.7-0.4-2.6-0.7c-0.6,0.4-1.3,0.9-2,1.4
			c-3.5,2.6-6.8,5.4-9.4,9C13.4,26.3,12.3,28.3,11.9,30.7z M29.9,34.4c0.4,0.1,0.9,0.1,1.4,0.3c1.6,0.4,3.3,0.8,4.9,1.1
			c1,0.2,2,0.4,2.9-0.3c0.8-0.5,1.6-1.1,2.2-1.9c1.1-1.3,2-2.8,2.6-4.4c0.3-0.8,0.5-1.6,0.4-2.5c-0.2-1.4-0.8-2.5-1.7-3.6
			c-2-2.4-4.3-4.4-6.7-6.3c-1.2-0.9-2.4-1.7-3.8-2.2c-0.8-0.3-1.7-0.5-2.5,0.1c0,0.1,0,0.2,0,0.3c0.5,2.7,1,5.4,1.4,8.2
			c0.3,2.1,0.5,4.2,0.1,6.3C30.6,31,30.2,32.7,29.9,34.4z M11.2,30.1c0.1-0.3,0.1-0.6,0.2-1c0.7-2.5,2.2-4.6,3.8-6.6
			c2.9-3.4,6.3-6.2,10-8.7c0.1-0.1,0.3-0.2,0.4-0.3c-0.1-0.3-0.2-0.6-0.4-0.9c-0.4,0.1-0.8,0.2-1.2,0.3c-5.6,1.7-10.7,4.4-15.8,7.3
			c-2.2,1.3-3.6,3.3-4.2,5.8c-0.3,1.2,0,1.9,1.1,2.4c0.6,0.3,1.3,0.6,1.9,0.8C8.5,29.5,9.8,29.7,11.2,30.1z M30.6,35.6
			c-0.5-0.1-0.8-0.1-1.2-0.2c-5-1-10.1-1.9-15.1-3c-1.1-0.2-2.1-0.6-3.2-1c-0.7-0.2-1.4-0.6-2.1-0.8c-1-0.3-2-0.4-2.9-0.7
			c-1.1-0.3-1.9,0.5-2.9,0.7c0,0-0.1,0-0.1,0c-0.6,0.2-0.7,0.9-0.3,1.3c0.3,0.2,0.6,0.4,1,0.5c0.8,0.2,1.5,0.3,2.3,0.5
			c1.8,0.5,3.6,1.1,5.4,1.7c3.1,1.1,6.1,2.3,9.2,3.3C24.4,39.1,27.6,38,30.6,35.6z M42.9,32.5c0.2-0.1,0.4-0.1,0.5-0.2
			c3.7-1.4,5.4-6.2,3.3-9.6c-0.5-0.8-1.1-1.6-1.8-2.3c-2.5-2.7-5.6-4.7-8.9-6.3c-1.4-0.7-2.9-1.3-4.4-1.6c-0.1,0.4-0.2,0.7-0.3,1
			c1.6,0.5,3.1,1.3,4.4,2.3c2.4,1.8,4.6,3.7,6.6,5.9c0.7,0.8,1.4,1.8,2,2.7c0.6,1,0.8,2.2,0.6,3.3c-0.2,1.2-0.7,2.3-1.2,3.3
			C43.5,31.6,43.2,32,42.9,32.5z M38,36.8c0.8,0.7,1.4,1.4,2.1,1.9c0.3,0.2,0.6,0.3,1,0.3c0.5,0.1,0.8-0.2,1-0.7
			c0.4-1.4,0.3-2.9,0.3-4.5C40.9,35,39.9,36.5,38,36.8z M28.5,14c0.6-0.2,1.3-0.3,1.8-0.6c0.8-0.4,0.8-1.2,0-1.7
			c-0.9-0.7-2.7-0.7-3.6,0c-0.7,0.5-0.7,1.2,0,1.7C27.2,13.6,27.9,13.8,28.5,14z"/>
		<path style="fill:#FF5F6D" d="M11.9,30.7c0.4-2.4,1.5-4.4,2.8-6.2c2.6-3.5,5.9-6.4,9.4-9c0.7-0.5,1.4-1,2-1.4c0.9,0.2,1.7,0.4,2.6,0.7
			c0.2,0.9,0.4,1.9,0.6,2.9c0.4,2.5,0.7,4.9,1.1,7.4c0.3,2-0.1,3.9-0.5,5.8c-0.2,1-0.6,2-0.8,3c-0.1,0.2-0.2,0.4-0.5,0.3
			c-4.6-0.9-9.2-1.8-13.9-2.7C13.8,31.2,12.9,30.9,11.9,30.7z"/>
		<path style="fill:#FF5F6D" d="M29.9,34.4c0.4-1.7,0.7-3.3,1.1-5c0.5-2.1,0.3-4.2-0.1-6.3c-0.4-2.7-0.9-5.4-1.4-8.2c0-0.1,0-0.2,0-0.3
			c0.8-0.6,1.7-0.4,2.5-0.1c1.4,0.6,2.6,1.3,3.8,2.2c2.4,1.9,4.7,3.9,6.7,6.3c0.9,1,1.5,2.2,1.7,3.6c0.1,0.9-0.1,1.7-0.4,2.5
			c-0.6,1.6-1.5,3.1-2.6,4.4c-0.6,0.7-1.4,1.3-2.2,1.9c-0.9,0.6-1.9,0.4-2.9,0.3c-1.6-0.3-3.3-0.7-4.9-1.1
			C30.7,34.5,30.3,34.4,29.9,34.4z"/>
		<path style="fill:#FF5F6D" d="M11.2,30.1c-1.4-0.3-2.7-0.6-4.1-1c-0.7-0.2-1.3-0.4-1.9-0.8c-1.1-0.6-1.4-1.3-1.1-2.4c0.6-2.5,2-4.5,4.2-5.8
			c5-2.9,10.2-5.5,15.8-7.3c0.4-0.1,0.8-0.2,1.2-0.3c0.1,0.3,0.2,0.6,0.4,0.9c-0.1,0.1-0.3,0.2-0.4,0.3c-3.7,2.5-7.1,5.3-10,8.7
			c-1.7,2-3.1,4.1-3.8,6.6C11.4,29.4,11.3,29.8,11.2,30.1z"/>
		<path style="fill:#FF5F6D" d="M30.6,35.6c-3,2.4-6.2,3.5-9.9,2.3c-3.1-1-6.1-2.2-9.2-3.3c-1.8-0.6-3.6-1.1-5.4-1.7c-0.7-0.2-1.5-0.3-2.3-0.5
			c-0.3-0.1-0.7-0.3-1-0.5c-0.5-0.4-0.3-1,0.3-1.3c0,0,0.1,0,0.1,0c1-0.2,1.8-1,2.9-0.7c1,0.3,2,0.4,2.9,0.7
			c0.7,0.2,1.4,0.6,2.1,0.8c1,0.4,2.1,0.8,3.2,1c5,1,10.1,2,15.1,3C29.8,35.4,30.1,35.5,30.6,35.6z"/>
		<path style="fill:#FF5F6D" d="M42.9,32.5c0.3-0.5,0.6-0.9,0.8-1.4c0.6-1,1.1-2.1,1.2-3.3c0.2-1.2,0-2.3-0.6-3.3c-0.6-1-1.2-1.9-2-2.7
			c-2-2.2-4.2-4.2-6.6-5.9c-1.3-1-2.8-1.8-4.4-2.3c0.1-0.3,0.2-0.7,0.3-1c1.5,0.4,3,1,4.4,1.6c3.3,1.6,6.3,3.6,8.9,6.3
			c0.7,0.7,1.3,1.5,1.8,2.3c2.1,3.4,0.4,8.2-3.3,9.6C43.3,32.4,43.1,32.4,42.9,32.5z"/>
		<path style="fill:#FF5F6D" d="M38,36.8c1.9-0.3,2.9-1.8,4.4-2.8c0,1.6,0.1,3-0.3,4.5c-0.1,0.5-0.5,0.8-1,0.7c-0.3-0.1-0.7-0.1-1-0.3
			C39.4,38.2,38.8,37.5,38,36.8z"/>
		<path style="fill:#FF5F6D" d="M28.5,14c-0.6-0.2-1.3-0.3-1.8-0.7c-0.7-0.4-0.7-1.2,0-1.7c0.9-0.7,2.7-0.7,3.6,0c0.7,0.5,0.7,1.3,0,1.7
			C29.7,13.6,29.1,13.8,28.5,14z"/>
	</g>
</g>
</svg>
